<svg xmlns="http://www.w3.org/2000/svg" version="1.1" xmlns:xlink="http://www.w3.org/1999/xlink" xmlns:svgjs="http://svgjs.dev/svgjs" width="1000" height="174" viewBox="0 0 1000 174"><g transform="matrix(1,0,0,1,-0.6060606060606801,0.5853114982593155)"><svg viewBox="0 0 396 69" data-background-color="#93c4e4" preserveAspectRatio="xMidYMid meet" height="174" width="1000" xmlns="http://www.w3.org/2000/svg" xmlns:xlink="http://www.w3.org/1999/xlink"><g id="tight-bounds" transform="matrix(1,0,0,1,0.24000000000003752,-0.23210628379248988)"><svg viewBox="0 0 395.5199999999999 69.46421256758497" height="69.46421256758497" width="395.5199999999999"><g><svg viewBox="0 0 503.93996274196894 88.50574608922174" height="69.46421256758497" width="395.5199999999999"><g transform="matrix(1,0,0,1,108.41996274196896,22.905611566265062)"><svg viewBox="0 0 395.52 42.69452295669162" height="42.69452295669162" width="395.52"><g id="textblocktransform"><svg viewBox="0 0 395.52 42.69452295669162" height="42.69452295669162" width="395.52" id="textblock"><g><svg viewBox="0 0 395.52 42.69452295669162" height="42.69452295669162" width="395.52"><g transform="matrix(1,0,0,1,0,0)"><svg width="395.52" viewBox="3.9 -32.65 307.08000000000004 33.15" height="42.69452295669162" data-palette-color="#49bce2"><path d="M20.9-16.7Q24.2-15.9 25.78-14.03 27.35-12.15 27.35-9.1L27.35-9.1Q27.35 0.25 12.7 0.25L12.7 0.25Q8.4 0.25 3.9 0L3.9 0 4.25-9.6 3.9-32.2 15.35-32.25Q20.3-32.25 23.05-30.18 25.8-28.1 25.8-24.2L25.8-24.2Q25.8-21.6 24.53-19.65 23.25-17.7 20.9-16.7L20.9-16.7ZM18.85-23.3Q18.85-25.5 17.55-26.43 16.25-27.35 13-27.35L13-27.35 10.55-27.35 10.4-18.6 15.1-18.45Q17-18.95 17.93-20.1 18.85-21.25 18.85-23.3L18.85-23.3ZM13.85-4.6Q17-4.6 18.73-5.85 20.45-7.1 20.45-9.45L20.45-9.45Q20.45-13 15.85-13.85L15.85-13.85 10.3-13.75 10.25-10.2 10.4-4.8Q12.15-4.6 13.85-4.6L13.85-4.6ZM45.6-32.65Q52.4-32.65 56.07-28.53 59.75-24.4 59.75-16.8L59.75-16.8Q59.75-8.5 55.75-4 51.75 0.5 44.45 0.5L44.45 0.5Q37.7 0.5 34.02-3.73 30.35-7.95 30.35-15.7L30.35-15.7Q30.35-23.85 34.32-28.25 38.3-32.65 45.6-32.65L45.6-32.65ZM45-27.2Q41-27.2 39.2-24.7 37.4-22.2 37.4-16.55L37.4-16.55Q37.4-10.1 39.17-7.35 40.95-4.6 45.05-4.6L45.05-4.6Q49.05-4.6 50.85-7.13 52.65-9.65 52.65-15.4L52.65-15.4Q52.65-21.75 50.87-24.48 49.1-27.2 45-27.2L45-27.2ZM77.75-32.65Q84.55-32.65 88.22-28.53 91.89-24.4 91.89-16.8L91.89-16.8Q91.89-8.5 87.89-4 83.89 0.5 76.59 0.5L76.59 0.5Q69.84 0.5 66.17-3.73 62.49-7.95 62.49-15.7L62.49-15.7Q62.49-23.85 66.47-28.25 70.44-32.65 77.75-32.65L77.75-32.65ZM77.14-27.2Q73.14-27.2 71.34-24.7 69.55-22.2 69.55-16.55L69.55-16.55Q69.55-10.1 71.32-7.35 73.09-4.6 77.19-4.6L77.19-4.6Q81.19-4.6 83-7.13 84.8-9.65 84.8-15.4L84.8-15.4Q84.8-21.75 83.02-24.48 81.25-27.2 77.14-27.2L77.14-27.2ZM110.29-17Q115.64-9.55 122.64-1.4L122.64-1.4 122.54-0.65Q119.74 0.05 115.94 0.5L115.94 0.5 115.14 0.1Q108.59-8.6 103.49-16.6L103.49-16.6 103.39-10.2 103.64 0 96.89 0 97.24-9.6 96.89-32.2 103.74-32.2 103.49-17.25 112.54-29.1 114.39-32.2 121.69-32.2 110.29-17ZM132.99-32.2L132.59-10.2 132.89 0 126.09 0 126.44-9.6 126.09-32.2 132.99-32.2ZM167.84-32.3L167.44-9.95 167.69 0 160.39 0 147.24-21.8 146.84-21.8 146.79-11.1 146.99 0 140.84 0 141.19-9.5 140.89-32.2 148.14-32.2 161.29-10.4 161.74-10.4 161.59-31.9 167.84-32.3ZM189.44-32.6Q194.69-32.6 198.89-30.65L198.89-30.65 197.44-24.55 196.79-24.45Q194.34-25.85 192.41-26.48 190.49-27.1 188.29-27.1L188.29-27.1Q183.84-27.1 181.79-24.45 179.74-21.8 179.74-15.75L179.74-15.75Q179.74-11.75 180.61-9.4 181.49-7.05 183.34-5.98 185.19-4.9 188.24-4.9L188.24-4.9Q189.29-4.9 190.21-5.05 191.14-5.2 192.49-5.6L192.49-5.6 192.59-8.35 192.49-13.45 198.74-13.9 198.59-9.4 198.74-1.55Q192.74 0.45 187.69 0.45L187.69 0.45Q180.19 0.45 176.41-3.65 172.64-7.75 172.64-15.4L172.64-15.4Q172.64-23.75 177.01-28.18 181.39-32.6 189.44-32.6L189.44-32.6ZM217.93-32.6Q222.63-32.6 226.38-30.65L226.38-30.65 225.18-25 224.63-24.75Q223.13-25.8 221.33-26.4 219.53-27 217.63-27L217.63-27Q209.68-27 209.68-16.55L209.68-16.55Q209.68-10.9 211.76-8.08 213.83-5.25 217.83-5.25L217.83-5.25Q219.68-5.25 221.66-5.83 223.63-6.4 225.23-7.4L225.23-7.4 225.83-7.05 225.28-1.3Q221.48 0.45 217.28 0.45L217.28 0.45Q210.08 0.45 206.31-3.75 202.53-7.95 202.53-15.8L202.53-15.8Q202.53-23.8 206.56-28.2 210.58-32.6 217.93-32.6L217.93-32.6ZM246.13-32.2L255.98 0 249.08 0 248.28-4.2 247.43-7.2 241.13-7.35 235.58-7.2 234.73-4.55 233.88 0 227.18 0 238.08-32.2 246.13-32.2ZM241.63-12.35L245.98-12.45 242.18-25.85 241.73-25.85 237.33-12.45 241.63-12.35ZM277.58-12.8Q281.48-6.6 285.33-1.6L285.33-1.6 285.23-0.85Q281.98 0.3 278.58 0.5L278.58 0.5 277.88-0.05Q274.28-6.25 272.03-10.85L272.03-10.85 267.18-10.85 267.18-10.2 267.48 0 260.68 0 261.03-9.6 260.68-32.2 273.03-32.25Q278.08-32.25 280.83-29.78 283.58-27.3 283.58-22.7L283.58-22.7Q283.58-19.6 282-17.03 280.43-14.45 277.58-12.8L277.58-12.8ZM267.48-27.05L267.28-16.1 272.23-15.9Q276.48-17.35 276.48-22.05L276.48-22.05Q276.48-24.6 275.1-25.88 273.73-27.15 270.88-27.25L270.88-27.25 267.48-27.05ZM302.48-5.3L310.43-5.6 310.83-5.05 310.38 0 290.18 0 290.53-9.6 290.18-32.2 310.58-32.2 310.98-31.65 310.48-26.6 302.78-26.85 296.98-26.8 296.83-19.05 302.38-18.95 307.63-19.1 308.03-18.6 307.58-13.55 301.88-13.7 296.73-13.65 296.68-10.2 296.83-5.35 302.48-5.3Z" opacity="1" transform="matrix(1,0,0,1,0,0)" fill="#49bce2" class="undefined-text-0" data-fill-palette-color="primary" id="text-0"></path></svg></g></svg></g></svg></g></svg></g><g><svg viewBox="0 0 98.34081054044502 88.50574608922174" height="88.50574608922174" width="98.34081054044502"><g><svg xmlns="http://www.w3.org/2000/svg" xmlns:xlink="http://www.w3.org/1999/xlink" version="1.1" x="0" y="0" viewBox="5.413 9.5 90.001 81" enable-background="new 0 0 100 100" xml:space="preserve" height="88.50574608922174" width="98.34081054044502" class="icon-icon-0" data-fill-palette-color="accent" id="icon-0"><g fill="#0074d9" data-fill-palette-color="accent"><path d="M93.398 77.222H7.429c-1.113 0-2.016-0.892-2.016-1.992V11.491c0-1.099 0.902-1.991 2.016-1.991h85.97c1.113 0 2.015 0.893 2.015 1.991v63.738C95.413 76.33 94.512 77.222 93.398 77.222zM9.443 73.237h81.939V13.483H9.443V73.237z" fill="#0074d9" data-fill-palette-color="accent"></path></g><g fill="#0074d9" data-fill-palette-color="accent"><path d="M83.995 67.927H16.831c-1.112 0-2.015-0.892-2.015-1.993V20.786c0-1.099 0.902-1.991 2.015-1.991h67.164c1.112 0 2.016 0.893 2.016 1.991v45.147C86.011 67.035 85.107 67.927 83.995 67.927zM18.846 63.942H81.98V22.778H18.846V63.942z" fill="#0074d9" data-fill-palette-color="accent"></path></g><g fill="#0074d9" data-fill-palette-color="accent"><path d="M59.815 90.5H41.011c-1.112 0-2.015-0.893-2.015-1.991V75.229c0-1.1 0.902-1.992 2.015-1.992h18.805c1.113 0 2.016 0.893 2.016 1.992v13.279C61.831 89.607 60.929 90.5 59.815 90.5zM43.025 86.517h14.775v-9.295H43.025V86.517z" fill="#0074d9" data-fill-palette-color="accent"></path></g><g fill="#0074d9" data-fill-palette-color="accent"><rect x="16.831" y="86.517" width="67.164" height="3.983" fill="#0074d9" data-fill-palette-color="accent"></rect></g><g fill="#0074d9" data-fill-palette-color="accent"><path d="M55.787 59.959H45.039c-1.111 0-2.014-0.892-2.014-1.991v-7.304h-7.389c-1.111 0-2.015-0.892-2.015-1.992V38.049c0-1.099 0.903-1.991 2.015-1.991h7.389v-7.304c0-1.1 0.902-1.991 2.014-1.991h10.748c1.111 0 2.014 0.892 2.014 1.991v7.304h7.389c1.111 0 2.015 0.893 2.015 1.991v10.623c0 1.101-0.903 1.992-2.015 1.992h-7.389v7.304C57.801 59.067 56.898 59.959 55.787 59.959zM47.055 55.976h6.718v-7.304c0-1.1 0.901-1.991 2.015-1.991h7.388v-6.64h-7.388c-1.113 0-2.015-0.893-2.015-1.992v-7.303h-6.718v7.303c0 1.1-0.902 1.992-2.016 1.992h-7.388v6.64h7.388c1.113 0 2.016 0.892 2.016 1.991V55.976z" fill="#0074d9" data-fill-palette-color="accent"></path></g></svg></g></svg></g></svg></g><defs></defs></svg><rect width="395.5199999999999" height="69.46421256758497" fill="none" stroke="none" visibility="hidden"></rect></g></svg></g></svg>